<?xml version="1.0" encoding="UTF-8"?>
<svg width="640" height="480" xmlns="http://www.w3.org/2000/svg">
 <title>cloud</title>
 <g>
  <title>Layer 1</title>
  <g id="layer1" opacity="0.25">
   <path d="m373.884308,91.942383c-20.805298,-5.744141 -41.860168,0.829483 -56.395416,15.110229c-7.594025,-9.405281 -17.876831,-16.664246 -30.210571,-20.069229c-31.742233,-8.763496 -64.442383,10.689285 -72.947739,43.395798c-0.624985,2.403259 -0.789536,4.820023 -1.124725,7.223709c-28.585419,-3.061722 -55.93718,15.37709 -63.610886,44.886047c-7.603607,29.238968 6.744781,59.136749 32.533691,71.429565c-1.401825,3.132156 -2.708878,6.359024 -3.604355,9.802017c-8.505219,32.706482 10.39299,66.327576 42.135284,75.091064c15.547455,4.29306 31.25946,1.772186 44.302261,-5.710876c7.188293,15.845093 20.590393,28.597961 38.257782,33.475372c25.20752,6.959656 50.786804,-4.065002 64.596497,-25.195709c5.593933,4.080444 11.811859,7.45575 18.81601,9.389832c31.742218,8.763489 64.37204,-10.709045 72.877411,-43.415558c4.276947,-16.446472 1.630493,-33.090149 -6.090088,-46.730713c7.640869,-7.507202 13.621796,-17.016647 16.552246,-28.285553c8.505341,-32.706894 -10.392914,-66.327957 -42.135162,-75.091476c-3.341431,-0.922104 -6.688538,-1.441574 -10.021179,-1.756744c1.97522,-28.721466 -15.939941,-55.819633 -43.931061,-63.547775z" id="path4952" stroke-dashoffset="0" stroke-miterlimit="4" stroke-linejoin="round" stroke-width="6" stroke="#000000" fill="#ffffff"/>
  </g>
 </g>

</svg>